<svg xmlns="http://www.w3.org/2000/svg" viewBox="0 0 169.72 172.67"><defs><style>.cls-1{fill:#009f58;}.cls-1,.cls-2,.cls-3,.cls-4,.cls-5{fill-rule:evenodd;}.cls-2{fill:#fee12d;}.cls-3{fill:#5482c3;}.cls-4{fill:#fff;}.cls-5{fill:#cbcac7;}.cls-6{fill:#efefef;}.cls-7{fill:#dc4b3e;}.cls-8{fill:#802c27;}</style></defs><title>googlemap-logo</title><g id="レイヤー_2" data-name="レイヤー 2"><g id="Layer_1" data-name="Layer 1"><path class="cls-1" d="M0,157.15V34.25A13,13,0,0,1,12.94,21.31H135.84Z"/><path class="cls-2" d="M0,159.72v-2.58L135.84,21.31h2.58a13,13,0,0,1,12.95,12.94v2.58L15.52,172.67H12.94A13,13,0,0,1,0,159.72Z"/><polygon class="cls-3" points="15.52 172.67 75.68 112.51 135.84 172.67 15.52 172.67"/><path class="cls-4" d="M135.84,172.67,74.76,111.59,90.28,96.07l61.08,61.08v2.58a13,13,0,0,1-12.95,12.94Z"/><polygon class="cls-5" points="151.36 157.15 91.2 96.99 151.36 36.83 151.36 157.15"/><path class="cls-6" d="M27,38a22,22,0,0,1,23.59,3.68c-2,2-4,3.94-6,5.88-6.26-6.21-18-3.26-20.94,4.95-3.84,8.08,2.54,18.7,11.55,18.82a12,12,0,0,0,13-9.14c-4.12,0-8.23,0-12.35,0-.12-2.54-.13-5.08-.08-7.62,6.88.18,13.93-.39,20.71.28.52,5,.16,10.38-2.54,14.79-4.24,7.9-14.27,11.35-22.75,9.36-10.48-2.17-18.33-12.93-16.9-23.58A22,22,0,0,1,27,38Z"/><path class="cls-7" d="M124.92,0h4.92a43.1,43.1,0,0,1,31.69,16.55,40.55,40.55,0,0,1,8.2,21.8v2.91c-.29,15.21-10,27.7-18.45,39.53-9.46,13.37-18.21,27.94-20.63,44.42-.65,2.79.13,6.7-3.21,8a8.93,8.93,0,0,1-2.25-2A84.35,84.35,0,0,0,118,104.48c-4.46-9.8-10.67-18.66-17-27.33A125.29,125.29,0,0,1,90.53,60.84,42.3,42.3,0,0,1,86,32.44,40,40,0,0,1,97.07,12.32,44.06,44.06,0,0,1,124.92,0Zm-1,26.8c-5.82,1.3-10.7,6.44-11.19,12.47A14.08,14.08,0,0,0,120.47,53a15.35,15.35,0,0,0,17.15-2.17,14,14,0,0,0,3.58-15.5C138.57,28.8,130.78,25.05,124,26.8Z"/><path class="cls-8" d="M124,26.8c6.81-1.74,14.61,2,17.24,8.57a14,14,0,0,1-3.58,15.5A15.35,15.35,0,0,1,120.47,53a14.08,14.08,0,0,1-7.7-13.77C113.26,33.24,118.15,28.09,124,26.8Z"/></g></g></svg>