<svg xmlns="http://www.w3.org/2000/svg" viewBox="0 0 852.6 162.71"><defs><style>.cls-1{fill:#231815;}</style></defs><title>logo</title><g id="レイヤー_2" data-name="レイヤー 2"><g id="レイヤー_1-2" data-name="レイヤー 1"><path class="cls-1" d="M132.63.42h6.51q11.77,0,42.46,2.46A15.27,15.27,0,0,1,182,6.57a14.15,14.15,0,0,1-.61,4.18q-15.1,0-21.12-.38-.12,18.41-2.82,70,12.16.37,19.4,1a13,13,0,0,1,.36,3.2,14.82,14.82,0,0,1-.61,4c-3.85.08-7.69.13-11.53.13q-17.31,0-34.5-1.1a10.36,10.36,0,0,1-.25-3,27,27,0,0,1,.36-4.42,64.41,64.41,0,0,1,7-.25q4.92,0,11.29.13,0-21.25,2.83-70.21l-19.4-1.59a24.62,24.62,0,0,1-.24-4.17A15.14,15.14,0,0,1,132.63.42Z"/><path class="cls-1" d="M200.75.06a33.86,33.86,0,0,1,4.17,0,12.45,12.45,0,0,1,3.8.61q-1,22.22-1.71,34.25Q244.2,18.34,269.85,8.53a10.9,10.9,0,0,1,2.83,6.26q-17.8,9.33-66.53,30.44l-3.43,43.94a18.64,18.64,0,0,1-3.81.25,23.66,23.66,0,0,1-4.3-.49q-.24-5.64-.11-12.89Q195.1,49.52,200.75.06Zm31.8,54.62a11.28,11.28,0,0,1,5.64-4.91q2.84,1,14.37,14.12Q263,75.55,266.79,81.07a13.18,13.18,0,0,1-2.7,2.95A8.6,8.6,0,0,1,261,86.1q-4.91-3.43-15-14.85A208.21,208.21,0,0,1,232.54,54.68Z"/><path class="cls-1" d="M284,23a12.78,12.78,0,0,1,3.92-.25c2.29.08,3.65.32,4,.74l-.48,15.22,39.4,2.21a7.5,7.5,0,0,1,.37,3.55,30,30,0,0,1-.74,4.18q-5.17.12-7.37.11-6.86,0-16.81-.37c-6.62-.15-11.53-.25-14.73-.25-.08,2-.12,4.05-.12,6.26a199.65,199.65,0,0,0,1.47,23.2q8.59,1.71,24.3,1.59,17.06-.11,23.8.74c.42.49.62,1.56.62,3.2a15,15,0,0,1-.36,3.68q-6.63,1.47-23.21,1.47-29.44,0-33-2.58Q282,78.38,282,58,282,35.89,284,23Zm-.26-21.36q20-1.1,38.05-1.11Q341.67.55,358.24,2a27.82,27.82,0,0,1,.23,3.8,15.89,15.89,0,0,1-.36,4q-13.51.74-53.89.74-15,0-20.5-.49A39.2,39.2,0,0,1,283.11,6,8.35,8.35,0,0,1,283.72,1.65Z"/><path class="cls-1" d="M419.48,33q7.61.35,18.16,7.48,0,3.06-2.57,9.45c-1.89,4.17-3.53,7-4.92,8.46Q419.1,55.79,412,50.26,415.8,38.24,419.48,33Z"/><path class="cls-1" d="M496.44.42h6.51q11.78,0,42.48,2.46a16.32,16.32,0,0,1,.36,3.68,14.18,14.18,0,0,1-.61,4.18c-10.06,0-17.11-.13-21.11-.38q-.13,18.41-2.82,70,12.15.37,19.39,1a12.67,12.67,0,0,1,.37,3.2,15.13,15.13,0,0,1-.61,4q-5.77.13-11.54.13-17.32,0-34.49-1.1a10.05,10.05,0,0,1-.25-3,28.26,28.26,0,0,1,.36-4.42,64.35,64.35,0,0,1,7-.25c3.28,0,7,0,11.3.13q0-21.25,2.83-70.21L496.2,8.29a24.82,24.82,0,0,1-.25-4.17A15.52,15.52,0,0,1,496.44.42Z"/><path class="cls-1" d="M564.56.06a34,34,0,0,1,4.18,0,12.52,12.52,0,0,1,3.8.61q-1,22.22-1.71,34.25Q608,18.34,633.67,8.53a10.78,10.78,0,0,1,2.83,6.26Q618.7,24.12,570,45.23l-3.44,43.94a18.62,18.62,0,0,1-3.81.25,23.66,23.66,0,0,1-4.29-.49c-.17-3.76-.2-8.05-.12-12.89Q558.91,49.52,564.56.06Zm31.81,54.62A11.25,11.25,0,0,1,602,49.77q2.82,1,14.36,14.12Q626.8,75.55,630.6,81.07A13,13,0,0,1,627.9,84a8.65,8.65,0,0,1-3.07,2.09q-4.91-3.43-15-14.85A207.9,207.9,0,0,1,596.36,54.68Z"/><path class="cls-1" d="M647.79,23a12.88,12.88,0,0,1,3.93-.25c2.29.08,3.65.32,4,.74l-.48,15.22,39.4,2.21a7.62,7.62,0,0,1,.36,3.55,29.45,29.45,0,0,1-.73,4.18q-5.17.12-7.36.11-6.88,0-16.82-.37c-6.63-.15-11.53-.25-14.73-.25-.09,2-.12,4.05-.12,6.26a199.65,199.65,0,0,0,1.47,23.2q8.58,1.71,24.29,1.59,17.07-.11,23.82.74c.42.49.61,1.56.61,3.2a14.78,14.78,0,0,1-.36,3.68q-6.63,1.47-23.19,1.47-29.46,0-33-2.58-3.05-7.36-3.07-27.74Q645.83,35.89,647.79,23Zm-.25-21.36q20-1.1,38.05-1.11,19.9,0,36.46,1.48a26.49,26.49,0,0,1,.25,3.8,15.33,15.33,0,0,1-.38,4q-13.5.74-53.88.74-15,0-20.5-.49A40,40,0,0,1,646.93,6,8.49,8.49,0,0,1,647.54,1.65Z"/><path class="cls-1" d="M.39,145.37a35,35,0,0,1,5.56.5,7.67,7.67,0,0,1-.43,2.59A20.15,20.15,0,0,1,0,147.88,8.35,8.35,0,0,1,.39,145.37Zm5,9.31a3.38,3.38,0,0,1,1,2.28,14.16,14.16,0,0,1-4.91,1.89,6.31,6.31,0,0,1-.89-2.2A25.89,25.89,0,0,1,5.37,154.68ZM2.67,136a21.44,21.44,0,0,1,6,1.7A7.63,7.63,0,0,1,7.76,140a11.69,11.69,0,0,1-5.87-1.7A10.22,10.22,0,0,1,2.67,136Zm10,8.92q-1.74.16-3.48.16A22.7,22.7,0,0,1,9,142.63l3.67-.31q.08-2,.12-4.33a6.51,6.51,0,0,1,1.35-.15,5.65,5.65,0,0,1,1.31.15q0,2.12.08,4.13l5.33-.31q0-3.4.19-7a7.89,7.89,0,0,1,1.35-.11,6.48,6.48,0,0,1,1.31.11q.19,3.71.19,6.8,3.28-.16,6.61-.27a65.87,65.87,0,0,1,.7,8,8.25,8.25,0,0,1-2.36.31q-.35-3-.85-5.56l-4.1.31q-.08,3.83-.35,7a4.65,4.65,0,0,1-1.31.11,3.9,3.9,0,0,1-1.12-.11q-.23-3.13-.27-6.8-2.63.16-5.29.27.12,6.64.12,12.25h7.46a8.53,8.53,0,0,1,.08,1,4.82,4.82,0,0,1-.19,1.43,25.61,25.61,0,0,1-4.91.27,20.17,20.17,0,0,1-5.18-.43q-.39-4.52-.39-7.45Q12.59,148.77,12.67,144.9Z"/><path class="cls-1" d="M46.74,139.38q.43,4.29.7,8.34a11.28,11.28,0,0,1-2.59.31,78.34,78.34,0,0,1-1-7.92q-1.54.31-3.17.5a9.27,9.27,0,0,1-.43-2.2,40.63,40.63,0,0,1,10.35-2.74,6.42,6.42,0,0,1,.46,2.32Q48.94,138.72,46.74,139.38Zm3.4,13a5.38,5.38,0,0,1,1.43,2.16,54.46,54.46,0,0,1-7,5.37,4.87,4.87,0,0,1-1.51-2A42.17,42.17,0,0,1,50.14,152.36Zm7.49-2.94q3.44,0,7.19.31a12,12,0,0,1-.23,2.28q-8.85,0-17.46-.58v-1.28a8.8,8.8,0,0,1,.08-1q3.56,0,7.69.16,0-2,.15-3.25h1.39a5.06,5.06,0,0,1,1.27.15Q57.71,147.57,57.63,149.42Zm-4.6,7a39.57,39.57,0,0,1,.39,4.17h3.21a6.51,6.51,0,0,1,.23,1.85,51,51,0,0,1-5.87.31q-.54-1.39-.54-6.22Q51.8,156.38,53,156.38Zm6.14-17.5q-1.27-2.43-2.43-5.1a12.43,12.43,0,0,1,2.2-1.2q1.47,2.74,2.94,5.56l4.52-1a6.2,6.2,0,0,1,.54,2.51q-1.85.58-3.71,1.08Q65,144,66.87,147.26a9.43,9.43,0,0,0,2-.93,5.22,5.22,0,0,1,1.31,1.7,17.29,17.29,0,0,1-3.86,2.12,82.88,82.88,0,0,1-5.72-8.77q-3.28.93-6.61,1.54a10.21,10.21,0,0,1-.66-2.51Zm2.39,17.62q1.35-1.39,3-2.78a18.08,18.08,0,0,1,2,1.55,25.87,25.87,0,0,1-2,2.2,5.77,5.77,0,0,0-.89.73q1.47,1.27,3,2.36a6.18,6.18,0,0,1-1.74,2,59.67,59.67,0,0,1-7.84-6.18,14.26,14.26,0,0,1,2-1.7Q60.34,155.6,61.57,156.49Zm6.64-25.3a35.83,35.83,0,0,1,2.47,4.64,6,6,0,0,1-2,1.35,33.7,33.7,0,0,1-2.51-4.75A5.6,5.6,0,0,1,68.22,131.19Z"/><path class="cls-1" d="M82.93,154.29a3.29,3.29,0,0,1-2.32.69q-1.12-3.47-2.16-8.11A41.44,41.44,0,0,1,77,138.73a6.44,6.44,0,0,1,1.16-.31,4.62,4.62,0,0,1,1.2,0Q80.23,141.89,82.93,154.29Zm21.52-17.23a19.34,19.34,0,0,1-2,5.87,3.54,3.54,0,0,1-2.2-.81q.62-2,1.24-3.48a43.76,43.76,0,0,0-6-1q-4.79-.65-8-1a2.07,2.07,0,0,1-.12-1.23,4.5,4.5,0,0,1,.12-1A46.93,46.93,0,0,1,104.45,137.06Zm-3.09,19.47a3.06,3.06,0,0,1-.16,1.2,7.33,7.33,0,0,1-1.08,0,33.6,33.6,0,0,1-6.57-.69q-4.37-1-4.94-2.55a3.17,3.17,0,0,1-.16-1,12.13,12.13,0,0,1,.66-3.67,4.44,4.44,0,0,1,2.32.35,9.51,9.51,0,0,0-.27,3.13q.47.85,4.75,1.47,3.09.51,5.37.7A3.64,3.64,0,0,1,101.36,156.53Z"/><path class="cls-1" d="M122.76,133.78a5.26,5.26,0,0,1,.58,2.51q-6.69,2-13.44,3.24a7.09,7.09,0,0,1-.73-2.51Q115.5,135.17,122.76,133.78Zm-1.24,11.44a6.37,6.37,0,0,1,.54,2.51q-5.95,1.86-11.86,3.09a6.58,6.58,0,0,1-.73-2.36A116.6,116.6,0,0,1,121.52,145.22Zm-3.94,5.91q.65,4,.93,8.19a7.12,7.12,0,0,1-2.59.46q-.69-4.17-1.08-8.34A12.15,12.15,0,0,1,117.58,151.13ZM136,150q.54,4.68.7,9.46a5.77,5.77,0,0,1-2.2.31,13.94,13.94,0,0,1-2.43-.15,5.32,5.32,0,0,1-.23-1.54,17.58,17.58,0,0,1,2.2-.16,64.75,64.75,0,0,1-.66-8.07q-3.71-.11-7.42-.42V148a7.38,7.38,0,0,1,.08-1.12q6.76,0,15.68.66a15.71,15.71,0,0,1-.23,2.59Q138.79,150.16,136,150Zm-1.66-13.56a54.77,54.77,0,0,1,6.1.27,6.85,6.85,0,0,1,0,2.51,56.15,56.15,0,0,1-6.1.16q-6.91,0-7.53-.16a5.75,5.75,0,0,1-.11-1.24,4.86,4.86,0,0,1,.19-1.43Q130.29,136.45,134.39,136.45Z"/><path class="cls-1" d="M167,137.84q-1.74,4-2.63,5.72a3.18,3.18,0,0,1-2.08-.77,19.76,19.76,0,0,1,1.31-3.4,46.6,46.6,0,0,0-6.8-1.82q-6.8-1.47-10-2.43a7.16,7.16,0,0,1,.19-1.28,1.93,1.93,0,0,1,.31-1Q162,135.29,167,137.84Zm-.81,19.58a52.89,52.89,0,0,1-11,1.35q-6.49,0-7.92-7.65c0-.13.35-.27,1-.43.52-.05.94-.08,1.27-.08a21.58,21.58,0,0,0,1.47,3.24,5.42,5.42,0,0,0,4.63,2.13,77.07,77.07,0,0,0,10-.89A4.81,4.81,0,0,1,166.14,157.42Z"/><path class="cls-1" d="M190.48,150.2a12.62,12.62,0,0,1-1.28,5,20.88,20.88,0,0,1-2.74,4.48l-1-.46a8.15,8.15,0,0,1-1-.81q3.28-5.72,3.29-7.84a2.05,2.05,0,0,0-.16-.85q0-1.16-8.88-3.56l-9-2.39a8.65,8.65,0,0,1,.23-1.31c.21-.57.35-1,.43-1.2Q188.16,144.87,190,148A4.51,4.51,0,0,1,190.48,150.2Zm-5.1-14.49c-.08.39-.16.75-.23,1.08a7.71,7.71,0,0,1-.58,1.16,59.67,59.67,0,0,1-9.93-3.55,6.65,6.65,0,0,1,1-2.36A85.42,85.42,0,0,1,185.38,135.71Z"/><path class="cls-1" d="M204.14,154.83a8.69,8.69,0,0,1,4.25,1.66,6.38,6.38,0,0,1-.66,2.24,6.58,6.58,0,0,1-1.08,2,11.44,11.44,0,0,1-4.25-1.82A12.59,12.59,0,0,1,204.14,154.83Zm1.55-22.75a5.63,5.63,0,0,1,2.7.31v1.82q0,3.17-.42,8.23a39.9,39.9,0,0,1-1.24,8.54,5.45,5.45,0,0,1-1.24,0,3,3,0,0,1-1.16-.19,15.27,15.27,0,0,1-.08-1.78A95.14,95.14,0,0,1,205.68,132.08Z"/><path class="cls-1" d="M238.25,145.37a35,35,0,0,1,5.56.5,7.68,7.68,0,0,1-.42,2.59,20.17,20.17,0,0,1-5.52-.58A8.37,8.37,0,0,1,238.25,145.37Zm5,9.31a3.38,3.38,0,0,1,1,2.28,14.18,14.18,0,0,1-4.91,1.89,6.27,6.27,0,0,1-.89-2.2A25.89,25.89,0,0,1,243.23,154.68Zm-2.7-18.7a21.46,21.46,0,0,1,6,1.7,7.68,7.68,0,0,1-.93,2.28,11.69,11.69,0,0,1-5.87-1.7A10.35,10.35,0,0,1,240.53,136Zm10,8.92q-1.74.16-3.48.16a22.79,22.79,0,0,1-.15-2.43l3.67-.31q.08-2,.12-4.33a6.51,6.51,0,0,1,1.35-.15,5.64,5.64,0,0,1,1.31.15q0,2.12.08,4.13l5.33-.31q0-3.4.19-7a7.91,7.91,0,0,1,1.35-.11,6.45,6.45,0,0,1,1.31.11q.19,3.71.19,6.8,3.28-.16,6.61-.27a66.33,66.33,0,0,1,.7,8,8.27,8.27,0,0,1-2.36.31q-.35-3-.85-5.56l-4.1.31q-.07,3.83-.35,7a4.64,4.64,0,0,1-1.31.11,3.92,3.92,0,0,1-1.12-.11q-.23-3.13-.27-6.8-2.63.16-5.29.27.11,6.64.11,12.25H261a8.34,8.34,0,0,1,.08,1,4.78,4.78,0,0,1-.19,1.43,25.61,25.61,0,0,1-4.91.27,20.14,20.14,0,0,1-5.17-.43q-.39-4.52-.39-7.45Q250.46,148.77,250.54,144.9Z"/><path class="cls-1" d="M284.61,139.38q.42,4.29.69,8.34a11.28,11.28,0,0,1-2.59.31,77.8,77.8,0,0,1-1-7.92c-1,.2-2.09.37-3.17.5a9.17,9.17,0,0,1-.43-2.2,40.6,40.6,0,0,1,10.35-2.74A6.42,6.42,0,0,1,289,138Q286.81,138.72,284.61,139.38Zm3.4,13a5.37,5.37,0,0,1,1.43,2.16,54.25,54.25,0,0,1-7,5.37,4.87,4.87,0,0,1-1.51-2A42.25,42.25,0,0,1,288,152.36Zm7.49-2.94q3.44,0,7.19.31a12,12,0,0,1-.23,2.28q-8.85,0-17.46-.58v-1.28a8.39,8.39,0,0,1,.08-1q3.55,0,7.69.16,0-2,.15-3.25h1.39a5,5,0,0,1,1.27.15Q295.58,147.57,295.5,149.42Zm-4.6,7a39.08,39.08,0,0,1,.39,4.17h3.2a6.55,6.55,0,0,1,.23,1.85,51,51,0,0,1-5.87.31q-.54-1.39-.54-6.22Q289.67,156.38,290.9,156.38Zm6.14-17.5q-1.28-2.43-2.43-5.1a12.41,12.41,0,0,1,2.2-1.2q1.47,2.74,2.94,5.56l4.52-1a6.2,6.2,0,0,1,.54,2.51q-1.86.58-3.71,1.08,1.78,3.24,3.63,6.49a9.48,9.48,0,0,0,2-.93,5.21,5.21,0,0,1,1.31,1.7,17.3,17.3,0,0,1-3.86,2.12,82.89,82.89,0,0,1-5.72-8.77q-3.28.93-6.6,1.54a10.12,10.12,0,0,1-.66-2.51Zm2.4,17.62q1.35-1.39,3-2.78a18.13,18.13,0,0,1,2,1.55,26.38,26.38,0,0,1-2,2.2,5.73,5.73,0,0,0-.89.73q1.47,1.27,3,2.36a6.16,6.16,0,0,1-1.74,2,59.72,59.72,0,0,1-7.84-6.18,14.32,14.32,0,0,1,2-1.7Q298.2,155.6,299.44,156.49Zm6.64-25.3a36.08,36.08,0,0,1,2.47,4.64,6,6,0,0,1-2,1.35,33.4,33.4,0,0,1-2.51-4.75A5.59,5.59,0,0,1,306.09,131.19Z"/><path class="cls-1" d="M338.53,156.15a4.25,4.25,0,0,1-.35,1.16q-.27.58-.58,1.12a38.6,38.6,0,0,1-7.42-3.09A101.49,101.49,0,0,1,332.54,145l1.89-7.26a150.42,150.42,0,0,0-20.2-1.55,6.87,6.87,0,0,1-.15-1.28,9.32,9.32,0,0,1,.12-1.27c.85,0,2.1,0,3.75,0a100,100,0,0,1,20,1.93,57.65,57.65,0,0,1-1.7,7q-2.36,8.85-3,11.36Q337.91,155.76,338.53,156.15Zm.77-22.83a3.38,3.38,0,0,1-1,.62,4.53,4.53,0,0,1-1,.46q-.12,0-.69-1.08c-.13-.41-.22-.72-.27-.93a5.76,5.76,0,0,1,2-.89c.08,0,.26.28.54.85Zm4.37-.54c0,.08-.31.27-.93.58a2.8,2.8,0,0,1-1.12.39c-.1,0-.27-.27-.5-.81a11.13,11.13,0,0,1-.42-1.16,6.13,6.13,0,0,1,2-.85Q342.94,130.92,343.67,132.78Z"/><path class="cls-1" d="M353.6,151.44q2,.27,4.17.77a56.47,56.47,0,0,1-1.78,5.87q3.59.12,7.42.42a7.14,7.14,0,0,1-.35,2.2,85,85,0,0,1-10.24-.93q.74-3,1.7-5.71L350,153q1.39-3.13,2.55-5.91a26.11,26.11,0,0,1-3.78-.58,8.26,8.26,0,0,1,.35-2.32,67.14,67.14,0,0,1,7.15.89A29,29,0,0,1,353.6,151.44Zm-2.67-14.72a15.36,15.36,0,0,1,5.45,1.55,5.53,5.53,0,0,1-.93,2.16,12.86,12.86,0,0,1-5.29-1.35A8.78,8.78,0,0,1,350.93,136.72Zm13.09,5.1q-.93,2.2-2,4.52a2.51,2.51,0,0,1-.15.27l5,.66a20.85,20.85,0,0,1-1.43,8.34,19.68,19.68,0,0,1-4-.5c.08-.93.19-1.39.35-1.39a10.7,10.7,0,0,1,1.89.19,35.64,35.64,0,0,0,.62-5.13q-1.82-.16-3.32-.31l0,.16a11.79,11.79,0,0,1-.69,1.39,6.78,6.78,0,0,1-.89,1.7,5.88,5.88,0,0,1-2.08-1.2q2.09-4.79,4.1-9-1.89-.27-3.79-.73a13.15,13.15,0,0,1,.23-2.36,68.93,68.93,0,0,1,10.47,1.43,9.85,9.85,0,0,1-.23,2.13C366.76,142,365.39,141.92,364,141.82Zm-.62-9.23a9.06,9.06,0,0,1,1.55,4.13,6.72,6.72,0,0,1-2.36.81,8.47,8.47,0,0,1-1.47-4.32A7.16,7.16,0,0,1,363.41,132.58ZM374,137q3.52.35,6.87.81a9.51,9.51,0,0,1-.31,2.28,43.55,43.55,0,0,1-7.8-.73q-.77,1.39-1.66,2.74a5,5,0,0,1-2.16-1,77,77,0,0,1,4.33-8.5,15,15,0,0,1,2.36.89Q374.88,135.17,374,137Zm1.89,12.4c.08.21.14.4.19.58q1.54-.15,3.17-.27a7,7,0,0,1,.43,2.28q-1.51.19-3.05.5c.1.41.19.87.27,1.39q.42,3.87.42,4.29a8,8,0,0,1-2.36.31,20.09,20.09,0,0,1-3.75-.31q0-.73,0-1.7h3.48c-.1-1.21-.26-2.43-.47-3.67l-4.75.31A7.45,7.45,0,0,1,369,151a37.45,37.45,0,0,1,4.75-.65c-.15-.7-.29-1.41-.42-2.12q1.2-1.28,2.43-2.82a54.44,54.44,0,0,1-6.45-.73,8.68,8.68,0,0,1,.5-2q4.79.31,9.54.89A27.15,27.15,0,0,1,375.88,149.42Z"/><path class="cls-1" d="M390.49,153.9a6,6,0,0,1-1.24.2,2.31,2.31,0,0,1-1.2-.08,51.11,51.11,0,0,1-1.27-8.81q-.23-4.52-.42-9.08a4.12,4.12,0,0,1,1.35-.27,4.53,4.53,0,0,1,1.16.19q.39,1.67,1,9.78Q390.06,148.3,390.49,153.9Zm22.06-10.66a5.64,5.64,0,0,1-.16,1.2l-5.06.12q0,2.24-.19,6.65,4,1.08,5.29,1.47a.45.45,0,0,1,0,.19,5.44,5.44,0,0,1-.12.93,4.2,4.2,0,0,1-.31,1.12q-3-.5-4.95-.89-.46,5.41-4,5.41a8,8,0,0,1-4.75-1.89q-2.47-1.86-2.47-4.1,0-3.24,4.91-3.24a29.75,29.75,0,0,1,3.44.54q.19-3.78.19-6.14l-5.18,0q-2.89,0-5.21-.12a4.15,4.15,0,0,1-.11-1.16,5,5,0,0,1,.08-1.16q3.9-.27,10.54-.27l.12-3.82a4.28,4.28,0,0,1,1.27-.19,4.72,4.72,0,0,1,1.24.15q.23,2.28.23,3.86a29.91,29.91,0,0,1,5.06.27A4.18,4.18,0,0,1,412.55,143.24Zm-3.05-9.12c-.05.31-.1.7-.16,1.16q-8.69,0-13.83-.39a5.24,5.24,0,0,1-.08-1.31,6.34,6.34,0,0,1,.12-1.08l2.74-.12q8,.39,11.12.66A4,4,0,0,1,409.49,134.13Zm-5.29,19.39a17.27,17.27,0,0,0-3.86-.58c-1.11,0-1.66.25-1.66.73q0,1.2,1.81,2.28a5.57,5.57,0,0,0,2,.78Q404.2,156.73,404.2,153.52Zm9.74-20.2c0,.08-.31.31-.93.7a3.57,3.57,0,0,1-1,.5c-.08,0-.32-.31-.73-.93a3.4,3.4,0,0,1-.39-1,4,4,0,0,1,.89-.62,3.19,3.19,0,0,1,1-.46,3.32,3.32,0,0,1,.58.85A4.11,4.11,0,0,1,413.94,133.32Zm3.44-2c0,.1-.3.31-.89.62a3.11,3.11,0,0,1-1,.54c-.08,0-.32-.32-.73-1a7.44,7.44,0,0,1-.39-1,5.92,5.92,0,0,1,1.86-1q.19,0,.65.77A5.76,5.76,0,0,1,417.37,131.35Z"/><path class="cls-1" d="M440,150.2a12.64,12.64,0,0,1-1.27,5A20.93,20.93,0,0,1,436,159.7l-1-.46a8,8,0,0,1-1-.81q3.28-5.72,3.29-7.84a2.07,2.07,0,0,0-.16-.85q0-1.16-8.88-3.56l-9-2.39a8.66,8.66,0,0,1,.23-1.31c.2-.57.35-1,.42-1.2q17.85,3.59,19.66,6.76A4.47,4.47,0,0,1,440,150.2Zm-5.1-14.49c-.08.39-.16.75-.23,1.08a7.61,7.61,0,0,1-.58,1.16,59.81,59.81,0,0,1-9.93-3.55,6.59,6.59,0,0,1,1-2.36A85.41,85.41,0,0,1,434.87,135.71Z"/><path class="cls-1" d="M454.56,154.83a8.69,8.69,0,0,1,4.25,1.66,6.38,6.38,0,0,1-.66,2.24,6.55,6.55,0,0,1-1.08,2,11.43,11.43,0,0,1-4.25-1.82A12.53,12.53,0,0,1,454.56,154.83Zm1.54-22.75a5.63,5.63,0,0,1,2.71.31v1.82q0,3.17-.43,8.23a39.92,39.92,0,0,1-1.24,8.54,5.44,5.44,0,0,1-1.23,0,2.94,2.94,0,0,1-1.16-.19,15,15,0,0,1-.08-1.78A95.15,95.15,0,0,1,456.11,132.08Z"/><path class="cls-1" d="M503.09,142a34.79,34.79,0,0,1,5.56.5,7.69,7.69,0,0,1-.43,2.59,20.24,20.24,0,0,1-5.52-.58A8.42,8.42,0,0,1,503.09,142Zm5,9.31a3.38,3.38,0,0,1,1,2.28,14.11,14.11,0,0,1-4.9,1.89,6.32,6.32,0,0,1-.89-2.2A26.29,26.29,0,0,1,508.07,151.28Zm-2.7-18.7a21.5,21.5,0,0,1,6,1.7,7.52,7.52,0,0,1-.93,2.28,11.67,11.67,0,0,1-5.87-1.7A10.33,10.33,0,0,1,505.37,132.58Zm10,8.92q-1.74.15-3.48.16a22.79,22.79,0,0,1-.15-2.43l3.67-.31q.08-2,.12-4.32a6.47,6.47,0,0,1,1.35-.16,5.63,5.63,0,0,1,1.31.16q0,2.12.08,4.13l5.33-.31q0-3.4.19-7a7.79,7.79,0,0,1,1.35-.12,6.34,6.34,0,0,1,1.31.12q.19,3.71.19,6.8,3.28-.15,6.61-.27a66.15,66.15,0,0,1,.7,8,8.31,8.31,0,0,1-2.36.31q-.35-3-.85-5.56l-4.1.31q-.08,3.82-.35,7a4.52,4.52,0,0,1-1.31.12,3.82,3.82,0,0,1-1.12-.12q-.23-3.13-.27-6.8-2.63.15-5.29.27.12,6.64.12,12.24h7.46a9.23,9.23,0,0,1,.08,1,4.76,4.76,0,0,1-.19,1.43,25.68,25.68,0,0,1-4.91.27,20.18,20.18,0,0,1-5.17-.42q-.39-4.52-.39-7.46Q515.3,145.37,515.37,141.51Z"/><path class="cls-1" d="M549.44,136q.42,4.29.7,8.34a11.28,11.28,0,0,1-2.59.31,77.51,77.51,0,0,1-1-7.92q-1.54.31-3.17.5A9.23,9.23,0,0,1,543,135a40.63,40.63,0,0,1,10.35-2.74,6.41,6.41,0,0,1,.46,2.32Q551.64,135.32,549.44,136Zm3.4,13a5.38,5.38,0,0,1,1.43,2.16,54.71,54.71,0,0,1-7,5.37,4.88,4.88,0,0,1-1.51-2A42,42,0,0,1,552.84,149Zm7.49-2.94q3.44,0,7.19.31a11.78,11.78,0,0,1-.23,2.28q-8.85,0-17.46-.58v-1.27a8.58,8.58,0,0,1,.08-1q3.55,0,7.68.15,0-2,.16-3.24h1.39a4.9,4.9,0,0,1,1.27.16C560.41,143.71,560.39,144.79,560.34,146Zm-4.6,7a38.73,38.73,0,0,1,.38,4.17h3.21a6.48,6.48,0,0,1,.23,1.85,51.2,51.2,0,0,1-5.87.31q-.54-1.39-.54-6.22Q554.5,153,555.74,153Zm6.14-17.5q-1.28-2.44-2.43-5.1a12,12,0,0,1,2.2-1.2q1.47,2.74,2.94,5.56l4.52-1a6.22,6.22,0,0,1,.54,2.51q-1.85.58-3.71,1.08,1.78,3.25,3.63,6.49a9.44,9.44,0,0,0,2-.93,5.25,5.25,0,0,1,1.31,1.7,17.35,17.35,0,0,1-3.86,2.12,82.76,82.76,0,0,1-5.72-8.77q-3.28.92-6.6,1.54A10.51,10.51,0,0,1,556,137Zm2.39,17.61q1.35-1.39,3-2.78a18.11,18.11,0,0,1,2,1.54,25.82,25.82,0,0,1-2,2.2,5.74,5.74,0,0,0-.89.73q1.47,1.27,3,2.36a6.16,6.16,0,0,1-1.74,2,59.91,59.91,0,0,1-7.84-6.18,14.41,14.41,0,0,1,2-1.7Q563,152.21,564.27,153.09Zm6.65-25.3a36,36,0,0,1,2.47,4.63,6,6,0,0,1-2,1.35,34,34,0,0,1-2.51-4.75A5.57,5.57,0,0,1,570.92,127.79Z"/><path class="cls-1" d="M603.21,133.47c0,.65-.08,1-.23,1.12q-6.22,0-14.37-.19L586,141.74l4.44,1.47a21.15,21.15,0,0,1,3.48-4,4.1,4.1,0,0,1,1.66,1.35q0,.12-2.55,3.59,2.63,1,4.63,1.78a4,4,0,0,1-.89,2.16q-1.24-.35-5.41-1.62-3.59,5-3.75,6.3a33.57,33.57,0,0,0,9.39,1.12l1.74,0,1.77,0a7,7,0,0,1,.23,1.93q-1.28.46-7.3.46a30.51,30.51,0,0,1-4.94-.46q-3.55-.62-4.17-1.58,0-2.28,4.33-8.5-5.14-1.66-6.18-2.47a58.46,58.46,0,0,1,3.09-8.85q-4.09-.23-6.3-.42a4.09,4.09,0,0,1-.11-1.16,3.23,3.23,0,0,1,.15-1.08l2.08,0,5.33-.08q.54-1.12,1.66-3.36c.05,0,.41.12,1.08.27a4.22,4.22,0,0,1,1.16.62l-.89,2.47q3.82.08,13.33.85A2,2,0,0,1,603.21,133.47Z"/><path class="cls-1" d="M613.8,141.08a4.19,4.19,0,0,1,.85,2.12,13.9,13.9,0,0,1-4.64,1.85,4.06,4.06,0,0,1-1.08-2.12A23.43,23.43,0,0,1,613.8,141.08Zm-3.63-8.19q2.24.89,4.37,2a7.18,7.18,0,0,1-1,2.36,13.31,13.31,0,0,1-4.4-1.89A8.83,8.83,0,0,1,610.16,132.89Zm9.81,20.2a7.72,7.72,0,0,1,1.47,2.17,28.3,28.3,0,0,1-3.09,2,9.66,9.66,0,0,0-1.66,1c-.57.33-1.13.66-1.7,1a8.5,8.5,0,0,1-1.47-2.16,10.41,10.41,0,0,1,1.51-1.24l1.58-1a15.31,15.31,0,0,0,1.62-1C618.81,153.67,619.39,153.4,620,153.09Zm4.05-1.23a20.46,20.46,0,0,1-2.86.19,42.88,42.88,0,0,1-6.57-.35,4.59,4.59,0,0,1-.15-1.2,6.2,6.2,0,0,1,.08-1.08h9.31c0-.41,0-.87-.08-1.39a19.75,19.75,0,0,1,2.43-.16c.08.49.14,1,.19,1.55q4.95,0,7.42.16a5,5,0,0,1,.08.93v1a42.18,42.18,0,0,1-7.11.31,65.18,65.18,0,0,1,.58,7.15,7,7,0,0,1-2.63.46,17.13,17.13,0,0,1-2.43-.15,5.74,5.74,0,0,1-.31-1.7,8.06,8.06,0,0,1,2.43-.31Q624.19,154.53,624,151.86Zm6.26-5.52a77.92,77.92,0,0,1-8.19.27,25.07,25.07,0,0,1-5-.43,40.45,40.45,0,0,1-.38-5.91q0-3.25.31-6.64a4.45,4.45,0,0,1,1.28-.15,4.25,4.25,0,0,1,1.23.15v4.21q2.59.15,5.29.58a12.14,12.14,0,0,1-.23,2.2,35.73,35.73,0,0,1-5.06-.35v3.9q4.56.15,8.19.15.08-4.21.15-9.31-3.75,0-6.72-.27a21.2,21.2,0,0,1,.11-2.32q5,.15,9.19.46.16,4,.16,6Q630.6,142.63,630.29,146.33Zm-8.5-19.66a18.11,18.11,0,0,1,4.83,2.82,4.71,4.71,0,0,1-1.62,2.12,27.33,27.33,0,0,1-4.59-2.78A12.69,12.69,0,0,1,621.79,126.67Zm10.35,27.08a29.31,29.31,0,0,1,4.13,2.32,4.24,4.24,0,0,1-.54,1.08,3.35,3.35,0,0,1-.69,1,14.19,14.19,0,0,1-4.25-2.28A7.18,7.18,0,0,1,632.15,153.75Zm5.56-20.7a3.32,3.32,0,0,1,.89,2,15.55,15.55,0,0,1-5.06,2.36,4.53,4.53,0,0,1-1.08-2.2A19.26,19.26,0,0,1,637.71,133Zm-3.82,8.19a30.54,30.54,0,0,1,4.48,1.85,7.65,7.65,0,0,1-1,2.13,14.75,14.75,0,0,1-4.52-1.7A14.71,14.71,0,0,1,633.88,141.24Z"/><path class="cls-1" d="M666.06,153a11.63,11.63,0,0,1-3.4,1.2,34.35,34.35,0,0,1-8.3,1,30.77,30.77,0,0,1-7.72-.93,37.49,37.49,0,0,1-.54-4q-.39-4.14-.39-8.77a81.5,81.5,0,0,1,.85-11.86,4.37,4.37,0,0,1,1.24-.08,2.63,2.63,0,0,1,1.2.27q0,1.89-.08,5.83t-.08,5.83a77.68,77.68,0,0,0,.54,10.66,22.6,22.6,0,0,0,5,.42,37.52,37.52,0,0,0,7.42-.85q3.36-.65,3.67-.73l0,0c.05,0,.06,0,0,0A5,5,0,0,1,666.06,153Z"/><path class="cls-1" d="M690.59,154.6q-2.32,2-6.84,2a4.35,4.35,0,0,1-3.86-2.36q-.39-.62-1.89-4.21-1,1.54-3.82,1.54a5.09,5.09,0,0,1-4-1.58,5.88,5.88,0,0,1-1.43-4.1,4.48,4.48,0,0,1,1.43-3.4,5.05,5.05,0,0,1,3.55-1.31,6,6,0,0,1,2.55.46l.27-6.68q-5.68-.5-7.68-.89a3.93,3.93,0,0,1-.12-1.08,3.13,3.13,0,0,1,.2-1.2l7.61.23.16-3.48a7.52,7.52,0,0,1,1.31-.08c.93,0,1.39.07,1.39.19l0,3.59,6.38.47a4.13,4.13,0,0,1,.11,1.12,4.23,4.23,0,0,1-.11,1.08q-2.17.15-4.17.15c-.77,0-1.51,0-2.2-.08v10.89a17.86,17.86,0,0,0,3.13,7.42,2.42,2.42,0,0,0,2,.77,14.55,14.55,0,0,0,5.1-1.43A3.08,3.08,0,0,1,690.59,154.6Zm-14-7.38a3.94,3.94,0,0,0-.73-2.39,2.53,2.53,0,0,0-2-.93q-2.2,0-2.2,2a3.86,3.86,0,0,0,.58,2.08,2,2,0,0,0,1.74,1Q676.61,149.08,676.61,147.22Zm20-3.36a7.84,7.84,0,0,0-.58.81l-.77.54a45.9,45.9,0,0,1-3.67-3.25,11,11,0,0,1,.77-.89l.77-.7A17,17,0,0,1,696.58,143.86Z"/><path class="cls-1" d="M704.73,137.68a4.15,4.15,0,0,1,1.16.31,62.32,62.32,0,0,1-1,8,3.35,3.35,0,0,1-1.28.15,4.72,4.72,0,0,1-1.35-.15,60.28,60.28,0,0,1,1-8.19A6.56,6.56,0,0,1,704.73,137.68Zm6.06,1.54,3.63.58a7,7,0,0,1-.39,2.36,26.49,26.49,0,0,1-3.13-.19q.15,3.9.16,8a4.46,4.46,0,0,1-1.35.15,3.67,3.67,0,0,1-1.31-.15q-.46-8.5-.46-15.57a4.48,4.48,0,0,1,1.35-.31,3.86,3.86,0,0,1,1.24.15Q710.68,136.72,710.79,139.23Zm14.33-6.34c0,.59,0,1.25,0,2l4.64.31a15.1,15.1,0,0,1-.19,2.36q-2.2,0-4.4-.15c0,.59,0,1.26,0,2l8,.31a15.35,15.35,0,0,1-.23,2.47q-9,0-17.69-.77v-1.27c0-.28,0-.63,0-1q3.32,0,7.11.16c-.05-.64-.09-1.31-.12-2q-2.51-.19-4.95-.5v-1.23a5.09,5.09,0,0,1,.08-.89c1.47,0,3,0,4.71.16,0-.75-.05-1.42-.08-2q-3.36-.15-6.68-.46v-1.39c0-.33,0-.66,0-1q3.09,0,6.61.16v-1.85a8.65,8.65,0,0,1,1.5-.12h1.31c0,.72.07,1.43.12,2.12l6,.31a13.31,13.31,0,0,1-.23,2.36ZM718.9,151l4.06.31c-.05.39-.1.75-.16,1.08a2.85,2.85,0,0,1-.19,1h-2.74a5.63,5.63,0,0,0-1.31-.16q-.38,1.85-.77,3.9c-.8-.1-1.56-.22-2.28-.35q.74-6.49,1.89-12.48a16.29,16.29,0,0,1,2.32.15q-.19,1.7-.39,3.25,2,0,4.32.15a5.29,5.29,0,0,1-.38,2.13c-1.67,0-3.08,0-4.21-.15Q719,150.51,718.9,151ZM730,144.48q.23,6.34.23,11.13a4.94,4.94,0,0,1-.43,2.32,10.33,10.33,0,0,1-1.82.16,16,16,0,0,1-2.43-.16,2.47,2.47,0,0,1-.23-1.12,3.85,3.85,0,0,1,.08-.89,13,13,0,0,1,2-.15q.08-4.48.08-9-3.28-.42-6.68-1v-1.08a6.59,6.59,0,0,1,.11-1.12Q725.35,143.86,730,144.48Z"/><path class="cls-1" d="M753.05,139.38q-1.78,0-4.17.15a57.17,57.17,0,0,1-7.11-.31,5.44,5.44,0,0,1-.15-1.24,8.64,8.64,0,0,1,.08-1.28h6.65c0-.49,0-1,0-1.39,0-.9,0-1.81,0-2.74a40.22,40.22,0,0,1-5.14-.15A6,6,0,0,1,743,131a3.33,3.33,0,0,1,.23-1.24q2.36-.15,5.14-.15,0-1.27.12-2.32a4.49,4.49,0,0,1,1.35-.19,3.87,3.87,0,0,1,1.31.19q.08,1,.12,2.32a36.65,36.65,0,0,1,4.94.27,3.35,3.35,0,0,1,.15,1.27,3.38,3.38,0,0,1-.15,1.24,36,36,0,0,1-4.83.15q0,1.2,0,2.43a16.34,16.34,0,0,1-.08,1.7q4.06,0,5.91.16a7.76,7.76,0,0,1,.08,1.12v1.24a17.31,17.31,0,0,1-3.17.16,3.33,3.33,0,0,1,1.35.58,33.71,33.71,0,0,1-1.66,4.21,18.55,18.55,0,0,1,2.51.15,5.17,5.17,0,0,1,.12,1.24,3,3,0,0,1-.12,1,50.13,50.13,0,0,1-5.71.15q0,1.12.08,2.36,2.86.16,5.79.46a11.15,11.15,0,0,1-.23,2.12q-2.82,0-5.48-.15,0,3,0,6.07a2.42,2.42,0,0,1-1.39.31,4.73,4.73,0,0,1-1.27-.15q-.31-3.09-.42-6.33-2.12-.16-4.13-.47,0-1.12.08-2.16h4q0-.93,0-2a42.49,42.49,0,0,1-5.29-.15,5,5,0,0,1-.11-1.24,4,4,0,0,1,.19-1.2h8.61A25.35,25.35,0,0,1,753.05,139.38Zm-6.84.31a6.15,6.15,0,0,1,1.39,3.09,6.92,6.92,0,0,1-2.2.73,5.86,5.86,0,0,1-1.31-3.25A6,6,0,0,1,746.22,139.69Zm13.67-6.07a2.94,2.94,0,0,1,1.39.35q.15,5.83.16,11.59T761.16,157h-2.59q-.39-5.57-.38-11.28t.38-11.74A2.8,2.8,0,0,1,759.89,133.63ZM771,131.77q0,4.79-.42,9.16a20.48,20.48,0,0,1-2.66.16,14.65,14.65,0,0,1-2.28-.16q0-1.12,0-1.86a25,25,0,0,1,2.66-.16q.08-2.35.23-4.94l-8.07-1.24a16.89,16.89,0,0,1,.27-2.36Q765.8,131,771,131.77Zm-4,21.63a35.29,35.29,0,0,1-3.79-1.7q.39-1.19.89-2.43a34.92,34.92,0,0,1,3.63,1.39q.54-2.2,1.08-4.21-3.13-.12-6.14-.42a11.46,11.46,0,0,1,.27-2.66,47,47,0,0,1,9.12.81,40.8,40.8,0,0,1-1.54,7.38c1,.44,2,.86,3,1.28a5.81,5.81,0,0,1-.89,2.43l-3-.89q-.65,1.85-1.47,3.82a5.65,5.65,0,0,1-2.28-.58C766.26,156.17,766.62,154.77,767,153.4Z"/><path class="cls-1" d="M799.48,131a9.6,9.6,0,0,1,1.43.12c.46.1.86.21,1.2.31l-1,6.07q4.83.23,5.21.31a5,5,0,0,1,.08,1.16,3.27,3.27,0,0,1-.23,1.35,36.35,36.35,0,0,1-5.48.19q-.66,3.55-1.7,8.5-.89,4.17-1.2,5a3.49,3.49,0,0,1-2.47-.46q.42-3.75,2.2-13.17l-10.82,0L787,148a4,4,0,0,1-1.62.23,5.72,5.72,0,0,1-.85,0q-.39-3-.7-7.88l-5.52-.16a2.58,2.58,0,0,1-.23-1.31,3.72,3.72,0,0,1,.19-1.32q3-.12,5.45-.11,0-1.35,0-2.86c0-.7,0-1.44,0-2.24a3.52,3.52,0,0,1,1.24-.23c.54,0,1,0,1.23,0q.35,3.55.43,5.29h11.47A58.75,58.75,0,0,1,799.48,131Z"/><path class="cls-1" d="M808.64,140.7q5.1-2.82,12.28-6.07,6.37-2.82,10.74-4.44a5.47,5.47,0,0,1,.58.93,7,7,0,0,1,.5,1.27q-1.47.85-7.57,3.67L809.87,143q-.5-.66-.81-1.16C808.88,141.3,808.74,140.93,808.64,140.7Zm11.55.19a3.11,3.11,0,0,1,1.43-.23,4.77,4.77,0,0,1,1.24,0q.66,2.2,1.7,14.1a6.73,6.73,0,0,1-1.47.35,5.61,5.61,0,0,1-1.31,0A70.52,70.52,0,0,1,820.19,140.89Z"/><path class="cls-1" d="M836.18,128.76a5.87,5.87,0,0,1,1.46-.15,6.07,6.07,0,0,1,1.39.19l.12,27.19a3.36,3.36,0,0,1-1.31.19,6.78,6.78,0,0,1-1.62-.11q-.31-3-.31-14.22Q835.91,138.53,836.18,128.76Zm6.26,10.16q1.31.39,5.29,2a39.75,39.75,0,0,1,4.87,2.28,5.46,5.46,0,0,1-1,2.32,44.45,44.45,0,0,1-10.28-4.21A5,5,0,0,1,842.44,138.92Z"/></g></g></svg>