<svg xmlns="http://www.w3.org/2000/svg" viewBox="0 0 478 390"><defs><style>.cls-1{fill:#231815;}.cls-2{fill:#fff;}</style></defs><title>mascot</title><g id="レイヤー_2" data-name="レイヤー 2"><g id="レイヤー_1-2" data-name="レイヤー 1"><path class="cls-1" d="M478,150v27a38.66,38.66,0,0,0-.92,4.29c-3.82,37.42-18.23,70.57-42.35,99-16.23,19.15-34.42,36.63-51.69,54.89-6.2,6.55-13.83,10.21-22.61,11.74-11.42,2-21,7.22-30.16,14.51a121.58,121.58,0,0,1-48.45,23.75c-18.55,4.37-37.37,3.92-56.17,3.67-28.89-.38-55.14-9.16-77.72-27.21-9.4-7.51-19.31-12.83-31.06-14.84-9.72-1.66-17.52-6.37-24.29-13.6-12.74-13.61-26.15-26.6-38.92-40.2C29.5,267.31,12.37,237.6,4.41,203c-1.89-8.24-3-16.66-4.41-25q0-13.5,0-27c1-4.87,1.91-9.75,3-14.59C6.69,120.16,16,109.74,33.19,107.74c5.12-.59,10.22-1.46,15.35-1.7,18-.82,32.87-7.74,44-22a29.12,29.12,0,0,0,4.29-9.36c3.18-10.45,6.23-21,9-31.53a17.46,17.46,0,0,0,.19-9c-2.82-9.2-6.27-18.21-9.44-27.31-.45-1.28-.71-2.62-1.2-4.5,12.1,3.9,23.41,7.78,34.88,11.11a21.13,21.13,0,0,0,9.93.08c13.78-3,27.38-6.83,41.24-9.34C193.13,2,205.12,1.32,217,0h44c2.62.32,5.24.77,7.88,1,20.61,1.44,41.18,3.77,60.81,10.3,9.58,3.19,18,3.29,27.22-.52,8.18-3.38,16.87-5.55,26.17-8.53-3.91,11.11-7.73,21.18-10.88,31.46-.93,3-.53,6.79.29,10C375,53.4,377.83,63.12,381,72.72c1.46,4.46,3.16,9.25,6.11,12.74,9.07,10.77,20.56,17.78,34.9,19.29,4.63.49,9.27,1,13.91,1.32,25.86,2,35.29,10.37,40.35,35.77C476.8,144.57,477.42,147.28,478,150ZM168.86,33.43c-33.81,2-58.69,29.31-56.76,62.29,1.89,32.17,30.06,57.07,62.39,55.15,31.65-1.88,57.27-30,55.31-60.78C227.68,56.8,200.54,31.56,168.86,33.43Zm197,58.93a58.8,58.8,0,0,0-58.63-59C275,33.19,248.17,59.71,248.09,92a58.91,58.91,0,0,0,117.81.39ZM169.81,304.23c-8,1.23-13-1.6-17.88-4.83-4.22-2.78-8.6-5.41-13.91-4.05-1.73.44-4.11,1.84-4.45,3.23s1.06,4.09,2.45,4.87c4,2.25,8.23,4.53,12.65,5.54,10.93,2.49,18.37,8.82,23.26,18.65,3.48,7,7.18,13.89,10.71,20.86,2.76,5.44,6.85,8.88,13.13,9.41,3.09.26,5.65-.33,7-3.43s1.92-5.75-.82-8.68a19,19,0,0,1-3.93-7.32c-2.62-8.63-.18-17.07,1.19-25.62,2-12.45,3.43-25,4.86-37.53.2-1.72-1-3.61-1.59-5.42-1.7,1.1-4.1,1.81-5,3.37-3.44,6.22-6.41,12.68-9.5,19.09-.81,1.68-1.42,3.47-2.62,6.44-1.85-3-3.18-4.88-4.16-6.88-3.94-8.06-7.66-16.22-11.7-24.23-1.41-2.79-3.63-6.39-7.13-4.49-2.1,1.14-4,5.13-3.75,7.59.55,5.17,2.38,10.26,4.09,15.25C164.8,291.92,167.25,297.66,169.81,304.23Zm141.13,1.32-1.13-1.47a70.07,70.07,0,0,1,2-8.47c1.36-3.74,3.65-7.18,4.71-11a103.81,103.81,0,0,0,3.22-16.88c.16-1.48-2-4.17-3.5-4.58s-4.08.87-5.47,2.17c-1.63,1.53-2.66,3.8-3.67,5.89-3.38,7-6.58,14.17-10,21.2a66.72,66.72,0,0,1-4.2,6.42c-1.15-3.19-1.65-4.91-2.37-6.54-2.5-5.6-4.73-11.35-7.76-16.65-1.39-2.43-4.39-3.94-6.66-5.86-.55,2.81-1.87,5.71-1.53,8.41,1.65,13.18,3.6,26.32,5.74,39.43,1.71,10.48,3.4,20.63-4.8,29.67-3.18,3.5.95,10.46,5.77,10.56,6.47.13,11.16-2.86,14.15-8.49,3.74-7.05,7.49-14.11,11-21.27,5-10.19,12.58-16.85,24-19.19a34.6,34.6,0,0,0,10.94-4.57c1.81-1.12,2.62-3.84,3.88-5.84-2.21-1.18-4.32-3-6.66-3.36-2.11-.35-4.62.5-6.68,1.44-3,1.37-5.63,3.62-8.66,4.89C319.27,303.14,315,304.22,310.94,305.55ZM239.35,123.76c-9.73-.16-17.49,7.43-16.85,17a40.5,40.5,0,0,0,8.39,22.62c5.12,6.57,10.94,6.65,16.11.14a40.16,40.16,0,0,0,8.52-23.08C256.06,131.18,248.7,123.91,239.35,123.76Zm157,63.42,1.34,1.53c2.58-1.17,5.67-1.77,7.64-3.6,10.37-9.57,20.64-19.26,30.48-29.35,2-2.08,2.13-6.05,3.12-9.15-3.1.63-6.59.54-9.22,2-14.06,7.85-23.87,19.92-31.9,33.57C397,183.63,396.82,185.5,396.35,187.18Zm-315,1.75a25,25,0,0,0,0-3.63,9.88,9.88,0,0,0-1-2.81c-8.23-13.94-18.22-26.27-32.65-34.2-2.47-1.36-5.83-1.1-8.78-1.58.85,2.83.86,6.5,2.69,8.36,10.37,10.5,21.09,20.66,31.92,30.69C75.29,187.32,78.14,187.66,81.38,188.92ZM81,230.26c-.59-11.54-23.09-32.85-31.81-30.46C49.86,207.7,72.84,230,81,230.26Zm347.65-30.95c-10.56-.41-32.51,21.52-31.31,30.88C405.23,230,428.5,207.26,428.68,199.31ZM77.13,273.94c-1.6-9.79-16.71-23.94-23.91-22.7C54.23,257.74,70.32,273.26,77.13,273.94Zm324-.2c6.34-.13,23.09-16.3,23.5-22.69C416.82,250.55,401.79,265.05,401.12,273.74Z"/><path class="cls-2" d="M0,178c1.45,8.34,2.52,16.76,4.41,25,8,34.6,25.09,64.31,49.24,90,12.76,13.6,26.17,26.58,38.92,40.2,6.77,7.23,14.57,11.94,24.29,13.6,11.75,2,21.66,7.32,31.06,14.84,22.58,18,48.84,26.83,77.72,27.21,18.79.25,37.62.7,56.17-3.67a121.58,121.58,0,0,0,48.45-23.75C339.39,354.18,349,349,360.43,347c8.78-1.54,16.42-5.19,22.61-11.74,17.27-18.27,35.47-35.74,51.69-54.89,24.11-28.46,38.53-61.61,42.35-99A38.66,38.66,0,0,1,478,177V390H0Q0,284,0,178Z"/><path class="cls-2" d="M217,0c-11.88,1.32-23.87,2-35.61,4.13-13.86,2.5-27.46,6.38-41.24,9.34a21.13,21.13,0,0,1-9.93-.08c-11.47-3.34-22.79-7.21-34.88-11.11.5,1.88.76,3.22,1.2,4.5,3.17,9.09,6.62,18.1,9.44,27.31a17.46,17.46,0,0,1-.19,9C103,53.69,100,64.2,96.81,74.65A29.12,29.12,0,0,1,92.51,84c-11.1,14.28-26,21.21-44,22-5.13.23-10.24,1.1-15.35,1.7C16,109.74,6.69,120.16,3,136.41c-1.1,4.84-2,9.73-3,14.59Q0,75.5,0,0Z"/><path class="cls-2" d="M478,150c-.58-2.72-1.2-5.43-1.74-8.16-5.06-25.4-14.49-33.75-40.35-35.77-4.64-.36-9.28-.83-13.91-1.32-14.35-1.5-25.83-8.52-34.9-19.29-2.95-3.5-4.65-8.28-6.11-12.74-3.15-9.6-6-19.33-8.52-29.11-.82-3.16-1.21-6.93-.29-10,3.15-10.28,7-20.36,10.88-31.46-9.3,3-18,5.15-26.17,8.53-9.21,3.8-17.64,3.7-27.22.52C310.05,4.72,289.49,2.39,268.88,1,266.24.77,263.62.32,261,0H478Z"/><path class="cls-2" d="M168.86,33.43c31.67-1.87,58.82,23.37,60.94,56.66,2,30.74-23.66,58.9-55.31,60.78-32.33,1.92-60.5-23-62.39-55.15C110.17,62.74,135.06,35.42,168.86,33.43Zm2,44.2c-8.36.07-14.63,6.3-14.6,14.5a14.76,14.76,0,0,0,15,14.78c7.9-.19,14.65-7.16,14.47-14.95A14.63,14.63,0,0,0,170.85,77.63Z"/><path class="cls-2" d="M365.91,92.36A58.91,58.91,0,0,1,248.09,92c.08-32.25,26.86-58.77,59.19-58.61A58.8,58.8,0,0,1,365.91,92.36Zm-36-.41A22.67,22.67,0,0,0,307,69.24a22.88,22.88,0,1,0,.4,45.75A22.54,22.54,0,0,0,329.95,92Z"/><path class="cls-2" d="M169.81,304.23c-2.56-6.57-5-12.3-7-18.18-1.71-5-3.54-10.07-4.09-15.25-.26-2.47,1.65-6.45,3.75-7.59,3.5-1.9,5.72,1.7,7.13,4.49,4,8,7.76,16.17,11.7,24.23,1,2,2.3,3.84,4.16,6.88,1.2-3,1.81-4.76,2.62-6.44,3.09-6.4,6.07-12.87,9.5-19.09.86-1.56,3.27-2.27,5-3.37.56,1.81,1.78,3.69,1.59,5.42-1.43,12.53-2.86,25.08-4.86,37.53-1.37,8.55-3.81,17-1.19,25.62a19,19,0,0,0,3.93,7.32c2.73,2.92,2.18,5.65.82,8.68s-3.94,3.69-7,3.43c-6.28-.53-10.37-4-13.13-9.41-3.53-7-7.23-13.86-10.71-20.86-4.9-9.83-12.34-16.15-23.26-18.65-4.42-1-8.65-3.28-12.65-5.54-1.39-.78-2.79-3.47-2.45-4.87s2.72-2.79,4.45-3.23c5.31-1.36,9.69,1.27,13.91,4.05C156.83,302.63,161.84,305.45,169.81,304.23Z"/><path class="cls-2" d="M310.94,305.55c4.11-1.33,8.33-2.41,12.3-4.07,3-1.27,5.66-3.52,8.66-4.89,2.06-.94,4.57-1.79,6.68-1.44,2.34.39,4.45,2.18,6.66,3.36-1.26,2-2.07,4.73-3.88,5.84a34.6,34.6,0,0,1-10.94,4.57c-11.38,2.34-18.95,9-24,19.19-3.52,7.16-7.27,14.22-11,21.27-3,5.64-7.68,8.63-14.15,8.49-4.82-.1-9-7.06-5.77-10.56,8.2-9,6.51-19.19,4.8-29.67-2.14-13.11-4.09-26.25-5.74-39.43-.34-2.7,1-5.6,1.53-8.41,2.27,1.93,5.27,3.43,6.66,5.86,3,5.3,5.27,11.05,7.76,16.65.72,1.62,1.22,3.34,2.37,6.54a66.72,66.72,0,0,0,4.2-6.42c3.4-7,6.6-14.16,10-21.2,1-2.09,2-4.36,3.67-5.89,1.39-1.3,3.91-2.59,5.47-2.17s3.65,3.1,3.5,4.58a103.81,103.81,0,0,1-3.22,16.88c-1.06,3.8-3.34,7.24-4.71,11a70.07,70.07,0,0,0-2,8.47Z"/><path class="cls-2" d="M239.35,123.76c9.35.15,16.71,7.42,16.17,16.67A40.16,40.16,0,0,1,247,163.51c-5.17,6.51-11,6.43-16.11-.14a40.5,40.5,0,0,1-8.39-22.62C221.87,131.19,229.62,123.6,239.35,123.76Z"/><path class="cls-2" d="M396.35,187.18c.47-1.67.61-3.54,1.46-5,8-13.65,17.84-25.72,31.9-33.57,2.63-1.47,6.13-1.38,9.22-2-1,3.1-1.09,7.07-3.12,9.15-9.85,10.09-20.12,19.79-30.48,29.35-2,1.82-5.07,2.43-7.64,3.6Z"/><path class="cls-2" d="M81.38,188.92c-3.23-1.27-6.09-1.6-7.79-3.18-10.83-10-21.55-20.19-31.92-30.69-1.84-1.86-1.84-5.53-2.69-8.36,2.95.49,6.31.23,8.78,1.58,14.43,7.93,24.42,20.27,32.65,34.2a9.88,9.88,0,0,1,1,2.81A25,25,0,0,1,81.38,188.92Z"/><path class="cls-2" d="M81,230.26c-8.19-.3-31.17-22.56-31.81-30.46C57.94,197.42,80.44,218.72,81,230.26Z"/><path class="cls-2" d="M428.68,199.31c-.17,7.95-23.44,30.67-31.31,30.88C396.16,220.83,418.11,198.9,428.68,199.31Z"/><path class="cls-2" d="M77.13,273.94c-6.81-.68-22.9-16.2-23.91-22.7C60.42,250,75.53,264.16,77.13,273.94Z"/><path class="cls-2" d="M401.12,273.74c.67-8.69,15.7-23.19,23.5-22.69C424.21,257.44,407.46,273.62,401.12,273.74Z"/><path class="cls-1" d="M170.85,77.63A14.63,14.63,0,0,1,185.75,92c.18,7.78-6.58,14.76-14.47,14.95a14.76,14.76,0,0,1-15-14.78C156.22,83.93,162.49,77.7,170.85,77.63Z"/><path class="cls-1" d="M329.95,92a22.54,22.54,0,0,1-22.54,23,22.87,22.87,0,1,1,22.54-23Z"/></g></g></svg>
